<svg width="16" height="17" viewBox="0 0 16 17" fill="none" xmlns="http://www.w3.org/2000/svg">
<path d="M2.94833 13.9756H13.0517C13.2158 13.9755 13.377 13.9329 13.5197 13.8519C13.6625 13.7709 13.7817 13.6543 13.8658 13.5134C13.95 13.3725 13.9961 13.2122 13.9998 13.0481C14.0034 12.8841 13.9644 12.7219 13.8866 12.5774L8.83527 3.19612C8.47692 2.53098 7.52308 2.53098 7.16472 3.19612L2.11335 12.5774C2.03556 12.7219 1.99659 12.8841 2.00023 13.0481C2.00388 13.2122 2.05003 13.3725 2.13416 13.5134C2.2183 13.6543 2.33755 13.7709 2.48025 13.8519C2.62296 13.9329 2.78424 13.9755 2.94833 13.9756Z" stroke="#EF8B17" stroke-width="0.948503" stroke-linecap="round" stroke-linejoin="round"/>
<path d="M7.8297 6.53965L7.99984 10.1558L8.16968 6.54113C8.17073 6.51803 8.16706 6.49495 8.15888 6.47331C8.15071 6.45167 8.13821 6.43192 8.12215 6.41527C8.10609 6.39863 8.0868 6.38543 8.06546 6.3765C8.04413 6.36756 8.02119 6.36306 7.99806 6.36329C7.97534 6.36351 7.95289 6.36829 7.93203 6.37733C7.91118 6.38637 7.89236 6.3995 7.87666 6.41594C7.86097 6.43238 7.84873 6.45179 7.84066 6.47304C7.8326 6.49429 7.82887 6.51694 7.8297 6.53965Z" stroke="#EF8B17" stroke-width="0.948503" stroke-linecap="round" stroke-linejoin="round"/>
<path d="M8.00004 12.5235C7.88279 12.5235 7.76818 12.4888 7.67069 12.4236C7.5732 12.3585 7.49722 12.2659 7.45235 12.1576C7.40748 12.0492 7.39574 11.93 7.41862 11.8151C7.44149 11.7001 7.49795 11.5944 7.58086 11.5115C7.66376 11.4286 7.76939 11.3722 7.88439 11.3493C7.99938 11.3264 8.11858 11.3381 8.2269 11.383C8.33522 11.4279 8.42781 11.5039 8.49295 11.6014C8.55809 11.6988 8.59286 11.8135 8.59286 11.9307C8.59286 12.0879 8.5304 12.2387 8.41922 12.3499C8.30805 12.4611 8.15727 12.5235 8.00004 12.5235Z" fill="#EF8B17"/>
</svg>
